<?xml version="1.0" encoding="utf-8"?>
<!-- Generator: Adobe Illustrator 16.0.4, SVG Export Plug-In . SVG Version: 6.00 Build 0)  -->
<!DOCTYPE svg PUBLIC "-//W3C//DTD SVG 1.1//EN" "http://www.w3.org/Graphics/SVG/1.1/DTD/svg11.dtd">
<svg version="1.1" id="Layer_1" xmlns="http://www.w3.org/2000/svg" xmlns:xlink="http://www.w3.org/1999/xlink" x="0px" y="0px"
	 width="409.211px" height="140.79px" viewBox="0 0 409.211 140.79" enable-background="new 0 0 409.211 140.79"
	 xml:space="preserve">
<g>
	<g>
		<path fill="#FFFFFF" d="M72.55,51.278c9.219,0,16.144,1.568,20.774,4.705c4.628,3.137,6.942,8.088,6.942,14.85
			c0,6.803-2.305,11.771-6.916,14.906c-4.61,3.137-11.544,4.705-20.801,4.705c-9.295,0-16.239-1.568-20.831-4.705
			c-4.591-3.135-6.886-8.104-6.886-14.906c0-6.762,2.304-11.713,6.916-14.85C56.358,52.846,63.291,51.278,72.55,51.278z
			 M72.55,80.583c2.948,0,5.441-0.123,7.481-0.369c2.041-0.244,3.694-0.727,4.96-1.445c1.264-0.717,2.182-1.709,2.748-2.977
			c0.566-1.264,0.851-2.918,0.851-4.959c0-2.039-0.285-3.691-0.851-4.959c-0.566-1.266-1.484-2.248-2.748-2.947
			c-1.267-0.699-2.919-1.172-4.96-1.418c-2.041-0.244-4.534-0.369-7.481-0.369s-5.441,0.125-7.481,0.369
			c-2.041,0.246-3.694,0.719-4.96,1.418s-2.182,1.682-2.748,2.947c-0.567,1.268-0.851,2.92-0.851,4.959
			c0,2.041,0.283,3.695,0.851,4.959c0.566,1.268,1.481,2.26,2.748,2.977c1.267,0.719,2.919,1.201,4.96,1.445
			C67.109,80.459,69.603,80.583,72.55,80.583z"/>
		<path fill="#1C75BC" d="M160.007,89.821h-15.7l-8.444-10.031h-18.024v10.031h-11.732V70.436h32.988
			c1.812,0,3.343-0.377,4.59-1.133c1.246-0.756,1.87-1.795,1.87-3.119c0-1.473-0.567-2.578-1.7-3.314
			c-1.134-0.736-2.721-1.104-4.76-1.104h-32.988l7.65-9.863h24.373c2.152,0,4.383,0.197,6.688,0.594
			c2.306,0.396,4.401,1.105,6.292,2.125c1.89,1.021,3.446,2.402,4.676,4.139c1.228,1.738,1.843,3.969,1.843,6.688
			c0,1.475-0.227,2.873-0.681,4.195c-0.454,1.324-1.105,2.512-1.956,3.57c-0.85,1.059-1.889,1.955-3.117,2.693
			c-1.228,0.736-2.616,1.256-4.166,1.559c0.643,0.49,1.36,1.115,2.154,1.869c0.793,0.756,1.852,1.797,3.174,3.117L160.007,89.821z"
			/>
		<path fill="#FFFFFF" d="M206.995,70.323c1.663,0.49,3.069,1.455,4.223,2.891c1.152,1.438,1.728,3.287,1.728,5.555
			c0,1.588-0.245,3.053-0.734,4.393c-0.492,1.342-1.324,2.504-2.496,3.486c-1.17,0.982-2.748,1.758-4.731,2.324
			c-1.985,0.566-4.471,0.85-7.455,0.85h-33.327V66.752h33.555c0.867,0,1.634-0.178,2.295-0.537c0.66-0.361,0.993-1.031,0.993-2.014
			c0-0.945-0.341-1.588-1.021-1.926c-0.682-0.342-1.438-0.51-2.268-0.51h-33.555l7.936-9.863h25.108c2.268,0,4.316,0.219,6.149,0.65
			c1.833,0.436,3.402,1.098,4.705,1.984c1.305,0.889,2.305,1.984,3.006,3.289c0.697,1.303,1.047,2.824,1.047,4.561
			c0,1.135-0.15,2.137-0.453,3.004c-0.302,0.871-0.689,1.637-1.162,2.297c-0.473,0.662-1.02,1.211-1.643,1.643
			C208.271,69.766,207.639,70.096,206.995,70.323z M175.991,74.858v5.215h21.595c1.285,0,2.211-0.229,2.777-0.682
			c0.567-0.453,0.851-1.113,0.851-1.984c0-0.828-0.283-1.463-0.851-1.896c-0.566-0.436-1.492-0.652-2.777-0.652H175.991z"/>
		<path fill="#FFFFFF" d="M230.742,89.821h-11.731V51.903h11.731V89.821z"/>
		<path fill="#FFFFFF" d="M285.155,51.903l-7.594,9.863h-13.548v28.055H252.28V61.766h-17.797l7.595-9.863H285.155z"/>
		<path fill="#FFFFFF" d="M291.028,89.821l7.085-9.748h9.521c1.133,0,2.314,0,3.543,0c1.227,0,2.295,0.037,3.201,0.111
			c-0.529-0.678-1.145-1.537-1.842-2.578c-0.699-1.039-1.369-2.012-2.012-2.918l-6.801-10.033l-17.798,25.166h-13.888l24.318-34.291
			c0.791-1.096,1.791-2.078,3.002-2.947c1.209-0.869,2.74-1.305,4.592-1.305c1.775,0,3.258,0.406,4.449,1.219
			c1.189,0.812,2.199,1.824,3.031,3.033l23.693,34.291H291.028z"/>
		<path fill="#FFFFFF" d="M380.41,80.073l-7.594,9.748h-33.498V51.903h11.732v28.17H380.41z"/>
	</g>
	<path fill="#1C75BC" d="M339.235,71.672c-4.809,0-12.955-0.487-13.49-3.754c-0.427-2.598,4.283-5.063,8.309-6.674
		c5.485-2.194,12.931-4.127,20.965-5.444c6.506-1.067,12.773-1.631,18.124-1.631c4.807,0,12.951,0.488,13.487,3.757
		c0.427,2.594-4.283,5.058-8.311,6.668c-5.484,2.193-12.93,4.128-20.963,5.447C350.854,71.108,344.587,71.672,339.235,71.672z
		 M373.143,55.169c-5.298,0-11.509,0.56-17.962,1.618c-7.965,1.305-15.336,3.218-20.755,5.385c-5.06,2.024-7.936,4.111-7.694,5.584
		c0.221,1.346,3.628,2.916,12.504,2.916c5.299,0,11.509-0.559,17.959-1.617c7.964-1.309,15.334-3.223,20.754-5.39
		c5.061-2.023,7.937-4.108,7.695-5.577C385.422,56.742,382.016,55.169,373.143,55.169z"/>
	<path fill="#1C75BC" d="M81.913,77.184c-6.115,0-13.03-0.465-19.996-1.344c-10.728-1.354-20.701-3.551-28.083-6.189
		c-5.372-1.919-11.686-4.912-11.26-8.273c0.635-5.044,15.384-5.588,21.696-5.588c6.118,0,13.036,0.465,20.005,1.346
		c19.918,2.514,40.079,8.611,39.342,14.463C102.985,76.639,88.228,77.184,81.913,77.184z M44.271,56.79
		c-12.216,0-20.343,1.85-20.704,4.713c-0.259,2.048,3.705,4.742,10.604,7.207c7.315,2.614,17.214,4.795,27.871,6.139
		c6.925,0.873,13.796,1.336,19.871,1.336c12.223,0,20.353-1.85,20.712-4.711c0.508-4.035-14.83-10.361-38.475-13.346
		C57.222,57.251,50.347,56.79,44.271,56.79z"/>
	<path fill="#1C75BC" d="M375.715,53.711c0.4,2.223-1.078,4.348-3.301,4.748c-2.221,0.398-4.348-1.08-4.748-3.303
		c-0.398-2.219,1.078-4.346,3.301-4.746C373.188,50.012,375.314,51.489,375.715,53.711z"/>
	<circle fill="#1C75BC" cx="33.456" cy="68.48" r="4.089"/>
	<path fill="#FFFFFF" d="M56.559,69.481c0.101-1.43,0.366-2.635,0.801-3.607c0.566-1.266,1.481-2.248,2.748-2.947
		s2.919-1.172,4.96-1.418c2.041-0.244,4.534-0.369,7.481-0.369s5.441,0.125,7.481,0.369c2.041,0.246,3.694,0.719,4.96,1.418
		c1.264,0.699,2.182,1.682,2.748,2.947c0.435,0.973,0.7,2.178,0.801,3.607h11.643v3.234c0.042-0.615,0.083-1.232,0.083-1.883
		c0-6.762-2.314-11.713-6.942-14.85c-4.63-3.137-11.555-4.705-20.774-4.705c-9.259,0-16.192,1.568-20.801,4.705
		c-4.294,2.92-6.56,7.434-6.856,13.498H56.559z"/>
	<rect x="339.318" y="51.903" fill="#FFFFFF" width="11.732" height="15.412"/>
</g>
</svg>
