<?xml version="1.0" encoding="utf-8"?>
<!-- Generator: Adobe Illustrator 16.0.4, SVG Export Plug-In . SVG Version: 6.00 Build 0)  -->
<!DOCTYPE svg PUBLIC "-//W3C//DTD SVG 1.1//EN" "http://www.w3.org/Graphics/SVG/1.1/DTD/svg11.dtd">
<svg version="1.1" id="Layer_1" xmlns="http://www.w3.org/2000/svg" xmlns:xlink="http://www.w3.org/1999/xlink" x="0px" y="0px"
	 width="409.211px" height="140.79px" viewBox="0 0 409.211 140.79" enable-background="new 0 0 409.211 140.79"
	 xml:space="preserve">
<g>
	<g>
		<path d="M72.55,51.278c9.219,0,16.144,1.568,20.774,4.705c4.628,3.137,6.942,8.088,6.942,14.85c0,6.803-2.305,11.771-6.916,14.906
			c-4.61,3.137-11.544,4.705-20.801,4.705c-9.295,0-16.239-1.568-20.831-4.705c-4.591-3.135-6.886-8.104-6.886-14.906
			c0-6.762,2.304-11.713,6.916-14.85C56.358,52.846,63.291,51.278,72.55,51.278z M72.55,80.583c2.948,0,5.441-0.123,7.481-0.369
			c2.041-0.244,3.694-0.727,4.96-1.445c1.264-0.717,2.182-1.709,2.748-2.977c0.566-1.264,0.851-2.918,0.851-4.958
			c0-2.039-0.285-3.692-0.851-4.959c-0.566-1.266-1.484-2.248-2.748-2.947c-1.267-0.699-2.919-1.172-4.96-1.418
			c-2.041-0.245-4.534-0.369-7.481-0.369s-5.441,0.124-7.481,0.369c-2.041,0.246-3.694,0.719-4.96,1.418s-2.182,1.682-2.748,2.947
			c-0.567,1.267-0.851,2.92-0.851,4.959c0,2.041,0.283,3.695,0.851,4.958c0.566,1.268,1.481,2.26,2.748,2.977
			c1.267,0.719,2.919,1.201,4.96,1.445C67.109,80.459,69.603,80.583,72.55,80.583z"/>
		<path fill="#1C75BC" d="M160.007,89.821h-15.7l-8.445-10.031h-18.025v10.031h-11.732V70.436h32.988
			c1.812,0,3.343-0.377,4.59-1.133c1.247-0.757,1.871-1.795,1.871-3.119c0-1.473-0.568-2.578-1.7-3.314
			c-1.134-0.736-2.721-1.104-4.76-1.104h-32.988l7.651-9.863h24.373c2.153,0,4.383,0.197,6.688,0.595
			c2.305,0.396,4.401,1.105,6.292,2.125c1.889,1.021,3.447,2.402,4.676,4.139c1.228,1.738,1.842,3.969,1.842,6.688
			c0,1.475-0.227,2.873-0.68,4.195c-0.454,1.324-1.105,2.511-1.956,3.57c-0.85,1.059-1.889,1.955-3.117,2.693
			c-1.228,0.737-2.616,1.256-4.166,1.559c0.643,0.49,1.36,1.115,2.155,1.869c0.793,0.756,1.851,1.797,3.173,3.117L160.007,89.821z"
			/>
		<path d="M206.995,70.323c1.663,0.49,3.069,1.455,4.223,2.89c1.152,1.438,1.728,3.288,1.728,5.555c0,1.588-0.245,3.053-0.734,4.393
			c-0.492,1.342-1.324,2.504-2.496,3.486c-1.17,0.982-2.748,1.758-4.731,2.324c-1.985,0.566-4.471,0.85-7.455,0.85h-33.327V66.752
			h33.554c0.868,0,1.634-0.179,2.295-0.538c0.66-0.36,0.993-1.03,0.993-2.013c0-0.945-0.341-1.588-1.021-1.927
			c-0.681-0.341-1.437-0.51-2.268-0.51h-33.554l7.935-9.863h25.109c2.268,0,4.316,0.219,6.149,0.651
			c1.833,0.436,3.402,1.098,4.705,1.984c1.305,0.889,2.305,1.984,3.006,3.288c0.697,1.303,1.047,2.824,1.047,4.562
			c0,1.135-0.15,2.137-0.453,3.004c-0.302,0.87-0.689,1.637-1.162,2.297c-0.473,0.661-1.02,1.21-1.643,1.643
			C208.271,69.766,207.639,70.096,206.995,70.323z M175.991,74.857v5.215h21.594c1.285,0,2.211-0.229,2.777-0.682
			c0.567-0.453,0.851-1.113,0.851-1.984c0-0.828-0.283-1.463-0.851-1.897c-0.566-0.436-1.492-0.652-2.777-0.652H175.991z"/>
		<path d="M230.742,89.821h-11.731V51.902h11.731V89.821z"/>
		<path d="M285.155,51.902l-7.595,9.863h-13.547v28.056H252.28V61.765h-17.797l7.595-9.863H285.155z"/>
		<path d="M291.027,89.821l7.086-9.748h9.521c1.133,0,2.314,0,3.543,0c1.227,0,2.295,0.037,3.201,0.111
			c-0.529-0.678-1.145-1.537-1.842-2.578c-0.699-1.039-1.369-2.012-2.012-2.918l-6.801-10.033l-17.799,25.166h-13.887l24.318-34.292
			c0.791-1.095,1.791-2.077,3.002-2.946c1.209-0.869,2.74-1.305,4.592-1.305c1.775,0,3.258,0.406,4.449,1.219
			c1.189,0.812,2.199,1.824,3.031,3.032l23.693,34.292H291.027z"/>
		<path d="M380.41,80.073l-7.594,9.748h-33.498V51.902h11.732v28.171H380.41z"/>
	</g>
	<path fill="#1C75BC" d="M339.235,71.672c-4.809,0-12.955-0.487-13.49-3.754c-0.427-2.598,4.283-5.063,8.309-6.673
		c5.485-2.194,12.931-4.127,20.965-5.444c6.506-1.067,12.773-1.631,18.124-1.631c4.807,0,12.951,0.488,13.487,3.756
		c0.427,2.594-4.283,5.058-8.311,6.668c-5.484,2.193-12.93,4.128-20.963,5.447C350.854,71.107,344.587,71.672,339.235,71.672z
		 M373.143,55.169c-5.298,0-11.509,0.56-17.962,1.618c-7.965,1.305-15.336,3.218-20.755,5.385c-5.06,2.024-7.936,4.111-7.694,5.583
		c0.221,1.346,3.628,2.917,12.504,2.917c5.299,0,11.509-0.56,17.959-1.618c7.964-1.308,15.334-3.222,20.754-5.389
		c5.061-2.023,7.937-4.108,7.695-5.578C385.422,56.741,382.016,55.169,373.143,55.169z"/>
	<path fill="#1C75BC" d="M81.913,77.184c-6.115,0-13.03-0.465-19.996-1.344c-10.728-1.354-20.701-3.551-28.083-6.189
		c-5.372-1.919-11.686-4.913-11.26-8.274c0.635-5.044,15.384-5.588,21.696-5.588c6.118,0,13.036,0.465,20.005,1.346
		c19.918,2.514,40.079,8.611,39.341,14.463C102.984,76.639,88.228,77.184,81.913,77.184z M44.271,56.789
		c-12.216,0-20.343,1.85-20.704,4.714c-0.259,2.047,3.705,4.742,10.604,7.207c7.315,2.614,17.214,4.794,27.871,6.138
		c6.925,0.873,13.796,1.336,19.871,1.336c12.223,0,20.353-1.85,20.712-4.711c0.509-4.036-14.83-10.362-38.474-13.346
		C57.222,57.251,50.347,56.789,44.271,56.789z"/>
	<path fill="#1C75BC" d="M375.715,53.71c0.4,2.223-1.078,4.349-3.301,4.748c-2.221,0.399-4.348-1.079-4.748-3.302
		c-0.398-2.219,1.078-4.346,3.301-4.746C373.188,50.012,375.314,51.489,375.715,53.71z"/>
	<circle fill="#1C75BC" cx="33.456" cy="68.48" r="4.089"/>
	<path d="M56.559,69.481c0.101-1.43,0.366-2.635,0.801-3.607c0.566-1.266,1.481-2.248,2.748-2.947s2.919-1.172,4.96-1.418
		c2.041-0.245,4.534-0.369,7.481-0.369s5.441,0.124,7.481,0.369c2.041,0.246,3.694,0.719,4.96,1.418
		c1.264,0.699,2.182,1.682,2.748,2.947c0.435,0.973,0.7,2.178,0.801,3.607h11.643v3.234c0.042-0.615,0.083-1.232,0.083-1.882
		c0-6.762-2.314-11.713-6.942-14.85c-4.63-3.137-11.555-4.705-20.774-4.705c-9.259,0-16.192,1.568-20.801,4.705
		c-4.294,2.92-6.56,7.434-6.856,13.498H56.559z"/>
	<rect x="339.318" y="51.902" width="11.732" height="15.413"/>
</g>
</svg>
